<?xml version="1.0"?>
<svg width="24" height="24" xmlns="http://www.w3.org/2000/svg" xmlns:svg="http://www.w3.org/2000/svg">
 <g class="layer">
  <title>Layer 1</title>
  <path d="m22.56,12.25c0,-0.78 -0.07,-1.53 -0.2,-2.25l-10.36,0l0,4.26l5.92,0c-0.26,1.37 -1.04,2.53 -2.21,3.31l0,2.77l3.57,0c2.08,-1.92 3.28,-4.74 3.28,-8.09z" fill="#4285F4" id="svg_1" transform="rotate(180 12 12)"/>
  <path d="m12,23c2.97,0 5.46,-0.98 7.28,-2.66l-3.57,-2.77c-0.98,0.66 -2.23,1.06 -3.71,1.06c-2.86,0 -5.29,-1.93 -6.16,-4.53l-3.66,0l0,2.84c1.81,3.59 5.52,6.06 9.82,6.06z" fill="#34A853" id="svg_2" transform="rotate(180 12 12)"/>
  <path d="m5.84,14.09c-0.22,-0.66 -0.35,-1.36 -0.35,-2.09s0.13,-1.43 0.35,-2.09l0,-2.84l-3.66,0c-0.75,1.48 -1.18,3.15 -1.18,4.93s0.43,3.45 1.18,4.93l2.85,-2.22l0.81,-0.62z" fill="#FBBC05" id="svg_3" transform="rotate(180 12 12)"/>
  <path d="m12,5.38c1.62,0 3.06,0.56 4.21,1.64l3.15,-3.15c-1.91,-1.78 -4.39,-2.87 -7.36,-2.87c-4.3,0 -8.01,2.47 -9.82,6.07l3.66,2.84c0.87,-2.6 3.3,-4.53 6.16,-4.53z" fill="#EA4335" id="svg_4" transform="rotate(180 12 12)"/>
  <path d="m1,1l22,0l0,22l-22,0l0,-22z" fill="none" id="svg_5" transform="rotate(180 12 12)"/>
 </g>
</svg>